<?xml version="1.0" standalone="no"?>
<!DOCTYPE svg PUBLIC "-//W3C//DTD SVG 1.1//EN" "http://www.w3.org/Graphics/SVG/1.1/DTD/svg11.dtd">
<svg xmlns="http://www.w3.org/2000/svg" xmlns:xlink="http://www.w3.org/1999/xlink" version="1.1" width="500" height="500" viewBox="0 0 500 500" xml:space="preserve">
<desc>Created with Fabric.js 3.6.3</desc>
<defs>
</defs>
<g transform="matrix(1 0 0 1 253.4077747431469 219.19768865347828)" style=""><path fill="#8c53ff" opacity="1" d="M-219.48 47.45L-177.03-50.73L-163.74-50.73L-121.44 47.45L-133.38 47.45L-147.42 14.37L-194.10 14.37L-207.84 47.45L-219.48 47.45ZM-169.63-39.10L-171.74-39.10L-190.17 5.01L-151.35 5.01L-169.63-39.10Z"/><path fill="#545454" opacity="1" d="M-96.52 3.65L-96.52-50.73L-85.19-50.73L-85.19 4.70Q-85.19 22.07-77.41 30.91Q-69.63 39.75-55.74 39.75Q-41.84 39.75-33.99 30.91Q-26.13 22.07-26.13 4.70L-26.13 4.70L-26.13-50.73L-14.80-50.73L-14.80 3.65Q-14.80 26.61-25.60 38.01Q-36.40 49.41-55.74 49.41Q-75.07 49.41-85.80 38.09Q-96.52 26.76-96.52 3.65L-96.52 3.65Z"/><path fill="#8c53ff" opacity="1" d="M19.18 47.45L19.18-50.73L57.70-50.73Q72.50-50.73 81.79-43.41Q91.08-36.08 91.08-23.54L91.08-23.54Q91.08-14.93 85.12-7.83Q79.15-0.73 68.27 2.14L68.27 2.14L98.03 47.45L84.29 47.45L56.79 4.10L30.51 4.10L30.51 47.45L19.18 47.45ZM55.44-41.06L30.51-41.06L30.51-5.72L55.59-5.72Q66.46-5.72 73.11-10.33Q79.75-14.93 79.75-23.54L79.75-23.54Q79.75-41.06 55.44-41.06L55.44-41.06Z"/><path fill="#8c53ff" opacity="1" d="M121.44 47.45L163.89-50.73L177.18-50.73L219.48 47.45L207.54 47.45L193.50 14.37L146.82 14.37L133.08 47.45L121.44 47.45ZM171.29-39.10L169.18-39.10L150.75 5.01L189.57 5.01L171.29-39.10Z"/></g><g transform="matrix(1 0 0 1 253.4077747431469 305.78449587236844)" style=""><path fill="#545454" opacity="1" d="M-217.57 20.98L-217.57-22.44L-200.53-22.44Q-193.99-22.44-189.88-19.20Q-185.77-15.96-185.77-10.41L-185.77-10.41Q-185.77-6.60-188.41-3.46Q-191.05-0.32-195.86 0.94L-195.86 0.94L-182.70 20.98L-188.78 20.98L-200.93 1.81L-212.56 1.81L-212.56 20.98L-217.57 20.98ZM-201.54-18.16L-212.56-18.16L-212.56-2.53L-201.47-2.53Q-196.66-2.53-193.72-4.57Q-190.78-6.60-190.78-10.41L-190.78-10.41Q-190.78-18.16-201.54-18.16L-201.54-18.16Z"/><path fill="#545454" opacity="1" d="M-130.66-4.27L-130.39-7.67L-116.90-7.67L-116.63-3.87L-120.04-3.87Q-120.11 2.01-120.87 5.65Q-121.64 9.29-123.71 12.77L-123.71 12.77Q-119.97 16.17-115.30 16.98L-115.30 16.98L-116.63 21.45Q-119.57 20.98-121.71 19.85Q-123.85 18.71-126.45 16.51L-126.45 16.51Q-129.86 19.38-133.30 20.62Q-136.74 21.85-141.15 21.85L-141.15 21.85Q-148.50 21.85-153.24 18.01Q-157.98 14.17-157.98 7.76L-157.98 7.76Q-157.98 3.82-155.84 0.68Q-153.71-2.46-149.97-4.33L-149.97-4.33Q-153.57-7.41-153.57-12.01L-153.57-12.01Q-153.57-16.02-149.77-18.73Q-145.96-21.43-140.08-21.43L-140.08-21.43Q-133.13-21.43-127.72-18.16L-127.72-18.16L-129.86-14.35Q-134.20-17.16-140.08-17.16L-140.08-17.16Q-144.35-17.16-146.53-15.72Q-148.70-14.29-148.70-11.75L-148.70-11.75Q-148.70-9.01-146.23-6.87L-146.23-6.87L-127.52 9.90Q-125.92 6.56-125.42 3.78Q-124.92 1.01-124.92-3.33L-124.92-3.33L-130.66-4.27ZM-130.13 13.44L-130.13 13.44L-147.23-1.46Q-153.04 1.08-153.04 7.29L-153.04 7.29Q-153.04 11.83-149.77 14.64Q-146.49 17.44-141.42 17.44L-141.42 17.44Q-137.54 17.44-135.00 16.58Q-132.46 15.71-130.13 13.44Z"/><path fill="#545454" opacity="1" d="M-60.92-19.76L-60.92-19.76L-63.06-15.82Q-68.27-19.10-74.55-19.10L-74.55-19.10Q-79.22-19.10-81.50-17.02Q-83.77-14.95-83.77-12.15L-83.77-12.15Q-83.77-9.41-81.96-7.67Q-80.16-5.94-76.15-5.13L-76.15-5.13L-69.81-3.80Q-58.32-1.39-58.32 9.03L-58.32 9.03Q-58.32 14.50-62.62 18.18Q-66.93 21.85-74.95 21.85L-74.95 21.85Q-79.56 21.85-82.87 21.05Q-86.17 20.25-89.91 18.31L-89.91 18.31L-88.18 13.77Q-81.76 17.44-75.08 17.44L-75.08 17.44Q-68.94 17.44-66.10 15.14Q-63.26 12.83-63.26 9.09L-63.26 9.09Q-63.26 5.42-65.26 3.45Q-67.27 1.48-72.01 0.48L-72.01 0.48L-79.02-0.99Q-83.30-1.86-85.90-4.67Q-88.51-7.47-88.51-11.88L-88.51-11.88Q-88.51-16.96-84.80-20.13Q-81.10-23.30-74.55-23.30L-74.55-23.30Q-66.67-23.30-60.92-19.76Z"/><path fill="#545454" opacity="1" d=""/><path fill="#545454" opacity="1" d="M13.83-22.44L13.83 16.64L34.80 16.64L34.80 20.98L8.82 20.98L8.82-22.44L13.83-22.44Z"/><path fill="#545454" opacity="1" d="M59.52 20.98L78.29-22.44L84.17-22.44L102.87 20.98L97.59 20.98L91.38 6.36L70.74 6.36L64.66 20.98L59.52 20.98ZM81.56-17.29L80.63-17.29L72.48 2.21L89.65 2.21L81.56-17.29Z"/><path fill="#545454" opacity="1" d="M128.92 20.98L128.92-22.44L144.02-22.44Q150.30-22.44 154.24-19.70Q158.18-16.96 158.18-11.48L158.18-11.48Q158.18-8.94 157.01-6.54Q155.84-4.13 153.71-2.80L153.71-2.80L153.71-2.53Q157.31-1.19 159.28 1.58Q161.26 4.35 161.26 8.03L161.26 8.03Q161.26 13.77 157.15 17.38Q153.04 20.98 146.16 20.98L146.16 20.98L128.92 20.98ZM146.16 0.01L133.87 0.01L133.87 16.71L145.56 16.71Q150.50 16.71 153.41 14.61Q156.31 12.50 156.31 8.29L156.31 8.29Q156.31 0.01 146.16 0.01L146.16 0.01ZM144.56-18.36L133.87-18.36L133.87-4.00L145.42-4.00Q149.23-4.00 151.24-5.97Q153.24-7.94 153.24-11.28L153.24-11.28Q153.24-14.69 150.93-16.52Q148.63-18.36 144.56-18.36L144.56-18.36Z"/><path fill="#545454" opacity="1" d="M216.30-19.76L216.30-19.76L214.16-15.82Q208.95-19.10 202.67-19.10L202.67-19.10Q198.00-19.10 195.72-17.02Q193.45-14.95 193.45-12.15L193.45-12.15Q193.45-9.41 195.26-7.67Q197.06-5.94 201.07-5.13L201.07-5.13L207.41-3.80Q218.90-1.39 218.90 9.03L218.90 9.03Q218.90 14.50 214.60 18.18Q210.29 21.85 202.27 21.85L202.27 21.85Q197.66 21.85 194.35 21.05Q191.05 20.25 187.31 18.31L187.31 18.31L189.04 13.77Q195.46 17.44 202.14 17.44L202.14 17.44Q208.28 17.44 211.12 15.14Q213.96 12.83 213.96 9.09L213.96 9.09Q213.96 5.42 211.96 3.45Q209.95 1.48 205.21 0.48L205.21 0.48L198.20-0.99Q193.92-1.86 191.32-4.67Q188.71-7.47 188.71-11.88L188.71-11.88Q188.71-16.96 192.42-20.13Q196.12-23.30 202.67-23.30L202.67-23.30Q210.55-23.30 216.30-19.76Z"/></g><g transform="matrix(1 0 0 1 250.5 250.50920967741934)" style=""><path fill="#000000" opacity="1" d=""/></g></svg>