<svg width="787" height="212" viewBox="0 0 787 212" fill="none" xmlns="http://www.w3.org/2000/svg">
<circle cx="105.944" cy="105.944" r="105.944" fill="#FF6700"/>
<circle cx="146.396" cy="96.7546" r="32.9404" stroke="white" stroke-width="8.84318"/>
<circle cx="68.5476" cy="96.8188" r="32.9404" stroke="white" stroke-width="8.84318"/>
<path d="M107.823 71.4847C107.103 72.3466 105.778 72.3466 105.057 71.4847L97.4745 62.4162C96.4931 61.2424 97.3276 59.4568 98.8576 59.4568L114.023 59.4568C115.553 59.4568 116.387 61.2424 115.406 62.4162L107.823 71.4847Z" fill="white"/>
<circle cx="68.5647" cy="96.6901" r="8.2336" fill="white"/>
<circle cx="146.821" cy="96.6901" r="8.2336" fill="white"/>
<path d="M241.542 134.023C241.542 138.403 244.766 141.866 248.843 141.866C252.92 141.866 256.144 138.403 256.144 134.023V112.63H283.072V134.023C283.072 138.403 286.296 141.866 290.373 141.866C294.45 141.866 297.674 138.403 297.674 134.023V77.1805C297.674 72.8002 294.45 69.3367 290.373 69.3367C286.296 69.3367 283.072 72.8002 283.072 77.1805V98.1652H256.144V77.1805C256.144 72.8002 252.92 69.3367 248.843 69.3367C244.766 69.3367 241.542 72.8002 241.542 77.1805V134.023Z" fill="#FF6700"/>
<path d="M355.491 142.376C373.317 142.376 384.6 131.782 384.6 110.186V77.1805C384.6 72.8002 381.376 69.3367 377.299 69.3367C373.222 69.3367 369.998 72.8002 369.998 77.1805V110.797C369.998 122.104 364.594 127.911 355.681 127.911C346.768 127.911 341.363 121.9 341.363 110.287V77.1805C341.363 72.8002 338.139 69.3367 334.062 69.3367C329.985 69.3367 326.761 72.8002 326.761 77.1805V110.695C326.761 131.68 337.665 142.376 355.491 142.376Z" fill="#FF6700"/>
<path d="M413.696 134.125C413.696 138.403 416.92 141.866 420.902 141.866C424.885 141.866 428.108 138.403 428.108 134.125V95.9241L457.312 137.079C459.303 139.829 461.389 141.663 464.898 141.663H465.372C469.449 141.663 472.673 138.199 472.673 133.819V77.0786C472.673 72.8002 469.449 69.3367 465.467 69.3367C461.484 69.3367 458.26 72.8002 458.26 77.0786V113.853L430.1 74.1245C428.108 71.374 426.022 69.5404 422.514 69.5404H420.997C416.92 69.5404 413.696 73.0039 413.696 77.3842V134.125Z" fill="#FF6700"/>
<path d="M518.284 134.023C518.284 138.403 521.508 141.866 525.585 141.866C529.662 141.866 532.886 138.403 532.886 134.023V84.4131H546.919C550.617 84.4131 553.651 81.1533 553.651 77.1805C553.651 73.2076 550.617 69.9479 546.919 69.9479H504.251C500.553 69.9479 497.519 73.2076 497.519 77.1805C497.519 81.1533 500.553 84.4131 504.251 84.4131H518.284V134.023Z" fill="#FF6700"/>
<path d="M585.836 141.255H623.099C626.702 141.255 629.642 138.199 629.642 134.328C629.642 130.457 626.702 127.299 623.099 127.299H593.042V112.325H618.358C621.962 112.325 624.901 109.269 624.901 105.398C624.901 101.527 621.962 98.369 618.358 98.369H593.042V83.9038H622.625C626.228 83.9038 629.168 80.8477 629.168 76.9767C629.168 73.1058 626.228 69.9479 622.625 69.9479H585.836C581.759 69.9479 578.535 73.4114 578.535 77.7917V133.411C578.535 137.792 581.759 141.255 585.836 141.255Z" fill="#FF6700"/>
<path d="M656.278 134.023C656.278 138.403 659.502 141.866 663.579 141.866C667.657 141.866 670.88 138.403 670.88 134.023V118.437H682.543L696.766 137.792C698.472 140.135 700.653 141.866 703.972 141.866C707.48 141.866 710.894 139.014 710.894 134.634C710.894 132.189 709.945 130.559 708.523 128.624L698.378 115.381C706.437 111.816 711.652 104.889 711.652 93.6831V93.4793C711.652 86.7561 709.661 81.1533 705.963 77.1805C701.601 72.4946 695.059 69.9479 686.62 69.9479H663.579C659.502 69.9479 656.278 73.4114 656.278 77.7917V134.023ZM670.88 104.583V84.1075H685.387C692.499 84.1075 696.86 87.571 696.86 94.2943V94.498C696.86 100.508 692.783 104.583 685.672 104.583H670.88Z" fill="#FF6700"/>
<path d="M762.632 142.274C776.949 142.274 787 134.328 787 120.169V119.965C787 107.537 779.414 102.342 765.95 98.5727C754.477 95.4148 751.633 93.8868 751.633 89.2009V88.9971C751.633 85.5336 754.572 82.7832 760.166 82.7832C764.718 82.7832 769.269 84.515 774.105 87.571C775.242 88.2841 776.38 88.6915 777.802 88.6915C781.595 88.6915 784.629 85.5336 784.629 81.4589C784.629 78.4029 783.017 76.2637 781.406 75.245C775.432 71.1703 768.415 68.9292 760.356 68.9292C746.797 68.9292 737.126 77.4861 737.126 90.4233V90.627C737.126 104.787 745.754 108.759 759.123 112.427C770.217 115.483 772.493 117.52 772.493 121.493V121.697C772.493 125.873 768.89 128.42 762.916 128.42C756.468 128.42 750.969 125.975 745.944 122.002C744.995 121.289 743.668 120.576 741.772 120.576C737.979 120.576 734.945 123.734 734.945 127.809C734.945 130.254 736.083 132.495 737.694 133.717C745.09 139.422 753.908 142.274 762.632 142.274Z" fill="#FF6700"/>
<path d="M169.053 114.085L176.076 119.459L144.49 160.742L137.467 155.369L169.053 114.085Z" fill="white"/>
<path d="M144.503 160.726C144.154 161.182 143.717 161.564 143.218 161.85C142.72 162.136 142.168 162.321 141.595 162.394C141.023 162.467 140.44 162.427 139.88 162.275C139.321 162.124 138.795 161.864 138.334 161.511C137.873 161.158 137.485 160.719 137.193 160.219C136.9 159.718 136.709 159.166 136.629 158.594C136.55 158.023 136.584 157.442 136.73 156.885C136.876 156.329 137.131 155.808 137.479 155.352L144.503 160.726Z" fill="white"/>
<path d="M91.0161 114.371L98.0393 119.744L66.4528 161.028L59.4296 155.654L91.0161 114.371Z" fill="white"/>
<path d="M66.4654 161.011C66.1165 161.467 65.6802 161.849 65.1814 162.136C64.6826 162.422 64.131 162.607 63.5582 162.68C62.9854 162.753 62.4026 162.712 61.8431 162.561C61.2835 162.409 60.7582 162.15 60.297 161.797C59.8359 161.444 59.448 161.005 59.1555 160.504C58.863 160.004 58.6715 159.452 58.5922 158.88C58.5128 158.308 58.547 157.727 58.6929 157.171C58.8388 156.615 59.0934 156.094 59.4423 155.638L66.4654 161.011Z" fill="white"/>
</svg>
