<?xml version="1.0" standalone="no"?>
<!DOCTYPE svg PUBLIC "-//W3C//DTD SVG 1.1//EN" "http://www.w3.org/Graphics/SVG/1.1/DTD/svg11.dtd">
<svg xmlns="http://www.w3.org/2000/svg" xmlns:xlink="http://www.w3.org/1999/xlink" version="1.1" width="500" height="500" viewBox="0 0 500 500" xml:space="preserve">
<desc>Created with Fabric.js 3.6.3</desc>
<defs>
</defs>
<g transform="matrix(1.7383771049880872 0 0 1.7383771049880872 257.9383259492962 240.4381734874761)">
<g style="">
		<g transform="matrix(1 0 0 1 -46.785 -51.07)">
<polygon style="stroke: none; stroke-width: 1; stroke-dasharray: none; stroke-linecap: butt; stroke-dashoffset: 0; stroke-linejoin: miter; stroke-miterlimit: 4; fill: rgb(140,83,255); fill-rule: evenodd; opacity: 1;" points="-3.7750000000000057,-18.430000000000003 -18.345000000000006,-3.7900000000000063 3.7749999999999986,18.429999999999993 18.345,3.799999999999997 "/>
</g>
		<g transform="matrix(1 0 0 1 -36.40812325166145 -40.69)">
<path style="stroke: none; stroke-width: 1; stroke-dasharray: none; stroke-linecap: butt; stroke-dashoffset: 0; stroke-linejoin: miter; stroke-miterlimit: 4; fill: rgb(140,83,255); fill-rule: evenodd; opacity: 1;" transform=" translate(-67.72687674833855, -60.61)" d="M 74.99 53.31 c -4.02 -4.04 -10.53 -4.04 -14.54 -0.01 c -4.01 4.03 -4.01 10.57 0.01 14.61 c 4.02 4.04 10.53 4.04 14.54 0.01 C 79.02 63.89 79.01 57.35 74.99 53.31 z" stroke-linecap="round"/>
</g>
		<g transform="matrix(1 0 0 1 -58.005 11.245000000000005)">
<rect style="stroke: none; stroke-width: 1; stroke-dasharray: none; stroke-linecap: butt; stroke-dashoffset: 0; stroke-linejoin: miter; stroke-miterlimit: 4; fill: rgb(140,83,255); fill-rule: evenodd; opacity: 1;" x="-10.305" y="-74.105" rx="0" ry="0" width="20.61" height="148.21"/>
</g>
		<g transform="matrix(1 0 0 1 -19.265000000000008 45.850000000000016)">
<path style="stroke: none; stroke-width: 1; stroke-dasharray: none; stroke-linecap: butt; stroke-dashoffset: 0; stroke-linejoin: miter; stroke-miterlimit: 4; fill: rgb(140,83,255); fill-rule: evenodd; opacity: 1;" transform=" translate(-84.87, -147.15)" d="M 119.33 97.95 l -79.2 79.55 c -2.6 1.89 -4.3 4.97 -4.3 8.44 c 0 5.75 4.64 10.41 10.37 10.41 c 2.52 0 4.83 -0.9 6.63 -2.41 l 0.04 0.04 l 81.04 -81.4 L 119.33 97.95 z" stroke-linecap="round"/>
</g>
		<g transform="matrix(0.21064237999158403 -0.9775631886233652 0.9775631886233652 0.21064237999158403 22.46938814866873 3.9437155235182306)">
<ellipse style="stroke: none; stroke-width: 1; stroke-dasharray: none; stroke-linecap: butt; stroke-dashoffset: 0; stroke-linejoin: miter; stroke-miterlimit: 4; fill: rgb(140,83,255); fill-rule: evenodd; opacity: 1;" cx="0" cy="0" rx="10.33" ry="10.28"/>
</g>
		<g transform="matrix(1 0 0 1 -57.984991863256454 -62.26)">
<path style="stroke: none; stroke-width: 1; stroke-dasharray: none; stroke-linecap: butt; stroke-dashoffset: 0; stroke-linejoin: miter; stroke-miterlimit: 4; fill: rgb(140,83,255); fill-rule: evenodd; opacity: 1;" transform=" translate(-46.15000813674355, -39.04)" d="M 46.15 28.7 c -5.67 0 -10.27 4.63 -10.27 10.34 c 0 5.71 4.6 10.34 10.27 10.34 c 5.67 0 10.27 -4.63 10.27 -10.34 C 56.43 33.33 51.83 28.7 46.15 28.7 z" stroke-linecap="round"/>
</g>
		<g transform="matrix(1 0 0 1 46.790000000000006 51.04500000000001)">
<polygon style="stroke: none; stroke-width: 1; stroke-dasharray: none; stroke-linecap: butt; stroke-dashoffset: 0; stroke-linejoin: miter; stroke-miterlimit: 4; fill: rgb(84,84,84); fill-rule: evenodd; opacity: 1;" points="-3.780000000000001,-18.42500000000001 -18.340000000000003,-3.7949999999999875 3.769999999999982,18.42500000000001 18.340000000000003,3.7949999999999875 "/>
</g>
		<g transform="matrix(1 0 0 1 36.428749994184315 40.675000000000026)">
<path style="stroke: none; stroke-width: 1; stroke-dasharray: none; stroke-linecap: butt; stroke-dashoffset: 0; stroke-linejoin: miter; stroke-miterlimit: 4; fill: rgb(84,84,84); fill-rule: evenodd; opacity: 1;" transform=" translate(-140.56374999418432, -141.97500000000002)" d="M 147.82 134.68 c -4.02 -4.04 -10.52 -4.04 -14.53 -0.01 c -4.01 4.03 -4 10.57 0.01 14.6 c 4.02 4.04 10.52 4.04 14.53 0.01 C 151.85 145.25 151.84 138.71 147.82 134.68 z" stroke-linecap="round"/>
</g>
		<g transform="matrix(1 0 0 1 58.010000000000005 -11.259999999999991)">
<rect style="stroke: none; stroke-width: 1; stroke-dasharray: none; stroke-linecap: butt; stroke-dashoffset: 0; stroke-linejoin: miter; stroke-miterlimit: 4; fill: rgb(84,84,84); fill-rule: evenodd; opacity: 1;" x="-10.3" y="-74.09" rx="0" ry="0" width="20.6" height="148.18"/>
</g>
		<g transform="matrix(1 0 0 1 19.30000000000001 -45.86)">
<path style="stroke: none; stroke-width: 1; stroke-dasharray: none; stroke-linecap: butt; stroke-dashoffset: 0; stroke-linejoin: miter; stroke-miterlimit: 4; fill: rgb(84,84,84); fill-rule: evenodd; opacity: 1;" transform=" translate(-123.43500000000002, -55.44)" d="M 162.08 6.25 c -2.52 0 -4.83 0.9 -6.62 2.41 l -0.04 -0.04 L 74.43 90 l 14.56 14.63 l 79.15 -79.53 c 2.6 -1.89 4.3 -4.97 4.3 -8.44 C 172.44 10.91 167.8 6.25 162.08 6.25 z" stroke-linecap="round"/>
</g>
		<g transform="matrix(0.1971440445213522 -0.9803745333849524 0.9803745333849524 0.1971440445213522 -22.41649252794397 -3.962243396618857)">
<ellipse style="stroke: none; stroke-width: 1; stroke-dasharray: none; stroke-linecap: butt; stroke-dashoffset: 0; stroke-linejoin: miter; stroke-miterlimit: 4; fill: rgb(84,84,84); fill-rule: evenodd; opacity: 1;" cx="0" cy="0" rx="10.33" ry="10.28"/>
</g>
		<g transform="matrix(1 0 0 1 57.985 62.239999999999995)">
<path style="stroke: none; stroke-width: 1; stroke-dasharray: none; stroke-linecap: butt; stroke-dashoffset: 0; stroke-linejoin: miter; stroke-miterlimit: 4; fill: rgb(84,84,84); fill-rule: evenodd; opacity: 1;" transform=" translate(-162.12, -163.54)" d="M 162.12 153.2 c -5.67 0 -10.27 4.63 -10.27 10.34 s 4.6 10.34 10.27 10.34 c 5.67 0 10.27 -4.63 10.27 -10.34 S 167.79 153.2 162.12 153.2 z" stroke-linecap="round"/>
</g>
</g>
</g>
</svg>